<?xml version="1.0" encoding="utf-8"?>
<!-- Generator: Adobe Illustrator 26.1.0, SVG Export Plug-In . SVG Version: 6.00 Build 0)  -->
<svg version="1.1" id="Layer_1" xmlns="http://www.w3.org/2000/svg" xmlns:xlink="http://www.w3.org/1999/xlink" x="0px" y="0px"
	 viewBox="0 0 2402.3 850.4" style="enable-background:new 0 0 2402.3 850.4;" xml:space="preserve">
<style type="text/css">
	.st0{fill:#FFFFFF;}
</style>
<g>
	<path class="st0" d="M604.9,230c-39.9-27.5-93.4-44-148.7-44C337.8,186,241,276,241,391.3c0,55.7,22.3,106.2,58.8,143.6
		c5,5.2,4.8,13.5-0.3,18.5l-56.5,55.1c-5.6,5.4-14.5,4.8-19.5-1.2c-40.4-48.6-64.1-112-64.1-179.9c0-146.8,112.5-265.9,263.3-265.9
		c70.2,0,134.1,25.8,182.5,68.1L604.9,230z"/>
	<path class="st0" d="M249,627c39.8,27.7,93.2,44.4,148.6,44.6c118.3,0.5,215.6-89.1,216.1-204.3c0.2-55.6-21.9-106.3-58.1-143.8
		c-5-5.2-4.8-13.5,0.4-18.6l56.7-54.9c5.6-5.4,14.6-4.8,19.6,1.2c40.2,48.7,63.5,112.3,63.2,180.2
		C694.8,578.3,581.8,696.8,431,696.2c-70.2-0.3-134-26.4-182.2-68.9L249,627z"/>
	<path class="st0" d="M526.9,307.1c-22-15.2-51.5-24.2-82-24.2c-65.2,0-118.6,49.6-118.6,113.1c0,28.7,10.8,55,28.7,75.1
		c4.7,5.3,4.5,13.3-0.5,18.3L332,511.2c-5.7,5.5-15,4.9-19.8-1.4c-19.7-26-31.1-58.8-31.1-93.8c0-80.9,62-146.6,145.2-146.6
		c38.7,0,74,14.2,100.6,37.6L526.9,307.1z"/>
	<path class="st0" d="M313.8,551.1c22.9,16.3,53.7,26.2,85.8,26.6c68.6,0.9,125.4-50.5,126.3-117.2c0.4-30.2-10.6-58-29.1-79.5
		c-4.8-5.6-4.5-13.9,0.8-18.9l24.5-23.2c5.7-5.4,14.9-4.8,19.6,1.5c20.6,27.7,32.3,62.7,31.8,99.8c-1.2,85.1-67.4,153.1-154.7,152
		c-40.7-0.6-77.5-16-105.2-40.9L313.8,551.1z"/>
	<g>
		<path class="st0" d="M788.2,657.4c0-6.4,1.1-12.4,3.3-17.9c2.2-5.5,5.3-10.3,9.2-14.3c4-4,8.7-7.2,14.2-9.5
			c5.5-2.3,11.5-3.4,18.1-3.4c3.7,0,7.2,0.3,10.3,1c3.1,0.7,5.9,1.5,8.3,2.4c2.4,0.9,4.5,1.9,6.3,2.9c1.8,1,3.2,2,4.3,2.8
			c1.9,1.5,2.2,3.4,0.7,5.7l-1.6,2.5c-1.4,2.2-3.3,2.5-5.7,1c-0.9-0.6-2.1-1.3-3.5-2.1c-1.4-0.8-3.1-1.6-4.9-2.3
			c-1.9-0.7-4-1.3-6.2-1.8c-2.3-0.5-4.8-0.7-7.4-0.7c-5.2,0-9.7,0.9-13.7,2.6c-4,1.7-7.4,4.1-10.2,7.2c-2.8,3-5,6.6-6.4,10.7
			c-1.5,4.1-2.2,8.4-2.2,13.1c0,4.7,0.7,9.1,2.2,13.4c1.5,4.2,3.7,8,6.5,11.1c2.8,3.2,6.3,5.7,10.3,7.6c4,1.9,8.6,2.8,13.7,2.8
			c2.9,0,5.6-0.3,8.1-0.9c2.5-0.6,4.8-1.4,6.8-2.2c2-0.9,3.8-1.8,5.3-2.8c1.5-1,2.7-1.9,3.7-2.6c2.2-1.7,4.2-1.6,5.7,0.5l1.9,2.5
			c1.6,2.1,1.4,4-0.6,5.7c-1.2,0.9-2.7,2-4.6,3.3c-1.9,1.3-4.1,2.5-6.7,3.7c-2.6,1.2-5.6,2.2-9,3s-7.1,1.2-11,1.2
			c-6.8,0-13-1.2-18.5-3.6c-5.5-2.4-10.3-5.6-14.2-9.8c-4-4.2-7-9-9.1-14.6C789.2,669.9,788.2,663.8,788.2,657.4z"/>
		<path class="st0" d="M931.5,617.9c0-2.7,1.4-4.1,4.1-4.1h4.7c2.2,0,3.8,0.9,5,2.7l37.6,54.6c0.7,1.2,1.6,2.5,2.4,3.9
			c0.9,1.5,1.6,2.9,2.3,4.2c0.8,1.5,1.7,3,2.5,4.6h0.2c-0.2-1.5-0.3-3-0.4-4.5c-0.2-1.3-0.3-2.7-0.3-4.2c0-1.5-0.1-2.8-0.1-4.1
			v-53.2c0-2.7,1.4-4.1,4.1-4.1h4c2.7,0,4.1,1.4,4.1,4.1v79.9c0,2.7-1.4,4.1-4.1,4.1H993c-2.2,0-3.9-0.9-4.9-2.7l-37.7-54.4
			c-0.8-1.2-1.7-2.5-2.5-4c-0.8-1.5-1.6-2.9-2.2-4.2c-0.8-1.5-1.7-3-2.5-4.6h-0.2c0.1,1.6,0.2,3.1,0.4,4.6c0.1,1.3,0.2,2.7,0.2,4.2
			c0.1,1.5,0.1,2.8,0.1,4.1v53.1c0,2.7-1.4,4.1-4.1,4.1h-4c-2.7,0-4.1-1.4-4.1-4.1V617.9z"/>
		<path class="st0" d="M1070,657.4c0-6.4,1.1-12.4,3.3-17.9c2.2-5.5,5.3-10.3,9.2-14.3c4-4,8.7-7.2,14.2-9.5
			c5.5-2.3,11.5-3.4,18.1-3.4c3.7,0,7.2,0.3,10.3,1c3.1,0.7,5.9,1.5,8.3,2.4c2.4,0.9,4.5,1.9,6.3,2.9c1.8,1,3.2,2,4.3,2.8
			c1.9,1.5,2.2,3.4,0.7,5.7l-1.6,2.5c-1.4,2.2-3.3,2.5-5.7,1c-0.9-0.6-2.1-1.3-3.5-2.1c-1.4-0.8-3.1-1.6-4.9-2.3
			c-1.9-0.7-4-1.3-6.2-1.8c-2.3-0.5-4.8-0.7-7.4-0.7c-5.2,0-9.7,0.9-13.7,2.6c-4,1.7-7.4,4.1-10.2,7.2c-2.8,3-5,6.6-6.4,10.7
			c-1.5,4.1-2.2,8.4-2.2,13.1c0,4.7,0.7,9.1,2.2,13.4c1.5,4.2,3.7,8,6.5,11.1c2.8,3.2,6.3,5.7,10.3,7.6c4,1.9,8.6,2.8,13.7,2.8
			c2.9,0,5.6-0.3,8.1-0.9c2.5-0.6,4.8-1.4,6.8-2.2c2-0.9,3.8-1.8,5.3-2.8c1.5-1,2.7-1.9,3.7-2.6c2.2-1.7,4.2-1.6,5.7,0.5l1.9,2.5
			c1.6,2.1,1.4,4-0.6,5.7c-1.2,0.9-2.7,2-4.6,3.3c-1.9,1.3-4.1,2.5-6.7,3.7c-2.6,1.2-5.6,2.2-9,3s-7.1,1.2-11,1.2
			c-6.8,0-13-1.2-18.5-3.6c-5.5-2.4-10.3-5.6-14.2-9.8c-4-4.2-7-9-9.1-14.6C1071.1,669.9,1070,663.8,1070,657.4z"/>
		<path class="st0" d="M1305.9,617.6c0.2-2.6,1.7-3.9,4.2-3.9h5.6c2.3,0,3.9,1.1,4.6,3.2l19.1,44.4c0.5,1.2,1,2.6,1.5,3.9
			c0.5,1.4,1,2.6,1.4,3.8c0.5,1.4,1,2.8,1.5,4.1h0.2c0.4-1.3,0.9-2.7,1.4-4.1c0.4-1.2,0.9-2.4,1.4-3.8c0.5-1.4,1-2.7,1.5-3.9
			l19.1-44.4c0.7-2.2,2.3-3.2,4.6-3.2h5.6c2.6,0,4,1.3,4.2,3.9l6.5,80c0.2,2.8-1.2,4.2-4,4.2h-4c-2.6,0-4-1.3-4.2-4l-4-51.6
			c-0.2-1.3-0.3-2.7-0.3-4.2c0-1.5-0.1-2.9-0.1-4.2c0-1.5,0-3,0.1-4.5h-0.2c-0.6,1.6-1.1,3.1-1.6,4.6c-0.5,1.3-1,2.8-1.6,4.3
			c-0.5,1.5-1.1,2.9-1.6,4.1l-16.2,36.5c-0.8,2.2-2.4,3.2-4.7,3.2h-4.1c-2.3,0-3.9-1.1-4.7-3.2l-16.2-36.5c-0.5-1.2-1-2.5-1.6-4
			c-0.5-1.5-1.1-3-1.6-4.4c-0.6-1.6-1.1-3.2-1.6-4.9h-0.2v4.6c0,1.3,0,2.8,0,4.3c0,1.5-0.1,3-0.2,4.3l-4,51.6c-0.2,2.7-1.6,4-4.1,4
			h-4.1c-2.8,0-4.2-1.4-4-4.2L1305.9,617.6z"/>
		<path class="st0" d="M1479.8,617.1c0.7-2.2,2.3-3.4,4.6-3.4h6c2.3,0,3.9,1.1,4.6,3.4l29,80c0.5,1.4,0.4,2.6-0.2,3.4
			c-0.6,0.9-1.7,1.3-3.2,1.3h-4.2c-2.3,0-3.9-1.1-4.6-3.4l-7.9-22h-33.2l-7.7,22c-0.7,2.2-2.2,3.4-4.5,3.4h-4.2
			c-1.6,0-2.7-0.4-3.2-1.3c-0.6-0.9-0.6-2-0.1-3.4L1479.8,617.1z M1500.7,666.3l-9.7-28c-0.4-1.2-0.8-2.4-1.2-3.8
			c-0.4-1.4-0.7-2.7-1.1-4.1c-0.3-1.5-0.7-3-1.1-4.6h-0.2c-0.5,1.6-0.9,3.1-1.2,4.6c-0.4,1.3-0.8,2.7-1.1,4.1
			c-0.3,1.4-0.7,2.6-1.1,3.8l-9.9,28H1500.7z"/>
		<path class="st0" d="M1580.1,657.4c0-6.4,1.1-12.4,3.3-17.9c2.2-5.5,5.3-10.3,9.2-14.3c4-4,8.7-7.2,14.2-9.5
			c5.5-2.3,11.5-3.4,18.1-3.4c3.7,0,7.2,0.3,10.3,1c3.1,0.7,5.9,1.5,8.3,2.4c2.4,0.9,4.5,1.9,6.3,2.9c1.8,1,3.2,2,4.3,2.8
			c1.9,1.5,2.2,3.4,0.7,5.7l-1.6,2.5c-1.4,2.2-3.3,2.5-5.7,1c-0.9-0.6-2.1-1.3-3.5-2.1c-1.4-0.8-3.1-1.6-4.9-2.3
			c-1.9-0.7-4-1.3-6.2-1.8c-2.3-0.5-4.8-0.7-7.4-0.7c-5.2,0-9.7,0.9-13.7,2.6c-4,1.7-7.4,4.1-10.2,7.2c-2.8,3-5,6.6-6.4,10.7
			c-1.5,4.1-2.2,8.4-2.2,13.1c0,4.7,0.7,9.1,2.2,13.4c1.5,4.2,3.7,8,6.5,11.1c2.8,3.2,6.3,5.7,10.3,7.6c4,1.9,8.6,2.8,13.7,2.8
			c2.9,0,5.6-0.3,8.1-0.9c2.5-0.6,4.8-1.4,6.8-2.2c2-0.9,3.8-1.8,5.3-2.8c1.5-1,2.7-1.9,3.7-2.6c2.2-1.7,4.2-1.6,5.7,0.5l1.9,2.5
			c1.6,2.1,1.4,4-0.6,5.7c-1.2,0.9-2.7,2-4.6,3.3c-1.9,1.3-4.1,2.5-6.7,3.7c-2.6,1.2-5.6,2.2-9,3s-7.1,1.2-11,1.2
			c-6.8,0-13-1.2-18.5-3.6c-5.5-2.4-10.3-5.6-14.2-9.8c-4-4.2-7-9-9.1-14.6C1581.2,669.9,1580.1,663.8,1580.1,657.4z"/>
		<path class="st0" d="M1723.4,617.9c0-2.7,1.4-4.1,4.1-4.1h4c2.7,0,4.1,1.4,4.1,4.1v34.6h45.8v-34.6c0-2.7,1.4-4.1,4.1-4.1h4.1
			c2.7,0,4,1.4,4,4.1v79.9c0,2.7-1.3,4.1-4,4.1h-4.1c-2.7,0-4.1-1.4-4.1-4.1v-34.6h-45.8v34.6c0,2.7-1.4,4.1-4.1,4.1h-4
			c-2.7,0-4.1-1.4-4.1-4.1V617.9z"/>
		<path class="st0" d="M1867.1,617.9c0-2.7,1.4-4.1,4.1-4.1h4c2.7,0,4.1,1.4,4.1,4.1v79.9c0,2.7-1.4,4.1-4.1,4.1h-4
			c-2.7,0-4.1-1.4-4.1-4.1V617.9z"/>
		<path class="st0" d="M1952.6,617.9c0-2.7,1.4-4.1,4.1-4.1h4.7c2.2,0,3.8,0.9,5,2.7l37.6,54.6c0.7,1.2,1.6,2.5,2.4,3.9
			c0.9,1.5,1.6,2.9,2.3,4.2c0.8,1.5,1.7,3,2.5,4.6h0.2c-0.2-1.5-0.3-3-0.4-4.5c-0.2-1.3-0.3-2.7-0.3-4.2c0-1.5-0.1-2.8-0.1-4.1
			v-53.2c0-2.7,1.4-4.1,4.1-4.1h4c2.7,0,4.1,1.4,4.1,4.1v79.9c0,2.7-1.4,4.1-4.1,4.1h-4.7c-2.2,0-3.9-0.9-4.9-2.7l-37.7-54.4
			c-0.8-1.2-1.7-2.5-2.5-4c-0.8-1.5-1.6-2.9-2.2-4.2c-0.8-1.5-1.7-3-2.5-4.6h-0.2c0.1,1.6,0.2,3.1,0.4,4.6c0.1,1.3,0.2,2.7,0.2,4.2
			c0.1,1.5,0.1,2.8,0.1,4.1v53.1c0,2.7-1.4,4.1-4.1,4.1h-4c-2.7,0-4.1-1.4-4.1-4.1V617.9z"/>
		<path class="st0" d="M2096.4,617.9c0-2.7,1.4-4.1,4.1-4.1h42.9c2.7,0,4.1,1.4,4.1,4.1v2.5c0,2.7-1.4,4.1-4.1,4.1h-34.8v27.6h27.6
			c2.7,0,4.1,1.4,4.1,4.1v2.5c0,2.7-1.4,4.1-4.1,4.1h-27.6v28.3h37c2.7,0,4.1,1.4,4.1,4.1v2.5c0,2.7-1.4,4.1-4.1,4.1h-45.1
			c-2.7,0-4.1-1.4-4.1-4.1V617.9z"/>
		<path class="st0" d="M2213.5,694.3c-0.8-0.7-1.4-1.6-1.6-2.5c-0.2-0.9,0.1-2,1.1-3.2l2.1-3c1.5-1.9,3.4-2.2,5.6-0.7
			c0.7,0.6,1.7,1.3,3,2.1c1.2,0.8,2.7,1.6,4.3,2.3s3.4,1.4,5.4,1.9c2,0.5,4.2,0.8,6.5,0.8c4.7,0,8.5-1.1,11.3-3.4
			c2.8-2.3,4.2-5.3,4.2-9.2c0-3.2-1-5.9-3.1-8c-2.1-2.1-4.7-3.9-7.9-5.6c-3.2-1.6-6.6-3.2-10.2-4.7c-3.7-1.5-7.1-3.3-10.2-5.4
			c-3.2-2-5.8-4.6-7.9-7.6c-2.1-3-3.1-6.8-3.1-11.4c0-3.7,0.7-7.1,2.2-10.1c1.5-3,3.5-5.6,6.1-7.7c2.6-2.1,5.6-3.8,9.1-4.9
			c3.5-1.2,7.2-1.7,11.2-1.7c2.6,0,5,0.2,7.4,0.7c2.3,0.5,4.5,1,6.4,1.7c1.9,0.7,3.6,1.4,5,2.2c1.4,0.8,2.5,1.5,3.4,2.2
			c2,1.4,2.4,3.3,1.2,5.6l-1.7,3.1c-0.7,1.3-1.6,2-2.6,2.1c-1,0-2-0.3-3.1-0.9c-1.7-1-3.9-2.1-6.6-3.3c-2.7-1.2-5.9-1.8-9.7-1.8
			c-4.6,0-8.4,1.1-11.4,3.3c-3,2.2-4.5,5.2-4.5,9.1c0,3.2,1,5.7,3.1,7.7c2.1,2,4.7,3.8,7.9,5.3c3.2,1.5,6.6,3,10.2,4.5
			c3.7,1.5,7.1,3.2,10.2,5.3c3.2,2.1,5.8,4.6,7.9,7.7c2.1,3,3.1,6.9,3.1,11.7c0,3.5-0.6,6.8-1.9,9.8c-1.2,3-3.1,5.7-5.5,7.9
			c-2.4,2.2-5.3,4-8.8,5.4c-3.5,1.3-7.4,2-11.8,2c-3.2,0-6.1-0.3-8.9-0.9c-2.8-0.6-5.3-1.4-7.6-2.4c-2.2-1-4.2-2-5.9-3
			C2215.8,696.1,2214.5,695.1,2213.5,694.3z"/>
	</g>
	<g>
		<path class="st0" d="M789.7,499.8c-3.5-3.1-5.7-6.6-6.6-10.5c-0.9-3.8,0.6-8.4,4.5-13.6l8.9-12.6c6.3-8,14.2-9.1,23.6-3.1
			c3.1,2.5,7.3,5.3,12.6,8.7c5.2,3.3,11.3,6.6,18.1,9.7c6.8,3.1,14.4,5.9,22.8,8.1c8.4,2.3,17.5,3.4,27.3,3.4
			c19.9,0,35.7-4.8,47.5-14.4c11.7-9.6,17.6-22.5,17.6-38.5c0-13.6-4.4-24.8-13.1-33.6c-8.7-8.7-19.8-16.5-33-23.3
			c-13.3-6.8-27.6-13.5-43-19.9c-15.4-6.5-29.7-14-43-22.5c-13.3-8.6-24.3-19.1-33-31.7c-8.7-12.6-13.1-28.5-13.1-47.7
			c0-15.7,3.1-29.9,9.2-42.5c6.1-12.6,14.6-23.3,25.4-32.2c10.8-8.9,23.6-15.8,38.3-20.7c14.7-4.9,30.4-7.3,47.2-7.3
			c10.8,0,21.1,1,30.9,2.9c9.8,1.9,18.7,4.3,26.7,7.1c8,2.8,15,5.9,21,9.2c5.9,3.3,10.7,6.4,14.2,9.2c8.4,5.9,10.1,13.8,5.2,23.6
			l-7.3,13.1c-3.1,5.6-6.7,8.5-10.7,8.7c-4,0.2-8.3-1.1-12.8-3.9c-7-4.2-16.2-8.8-27.5-13.9c-11.4-5.1-24.9-7.6-40.6-7.6
			c-19.2,0-35.1,4.6-47.7,13.9c-12.6,9.3-18.9,21.9-18.9,38c0,13.3,4.4,24.1,13.1,32.5c8.7,8.4,19.7,15.8,33,22.3
			c13.3,6.5,27.6,12.8,43,18.9c15.4,6.1,29.7,13.6,43,22.3c13.3,8.7,24.3,19.5,33,32.2c8.7,12.8,13.1,29.1,13.1,49
			c0,14.7-2.6,28.4-7.9,41.2c-5.2,12.8-12.9,23.9-23.1,33.3c-10.1,9.4-22.5,17-37,22.5c-14.5,5.6-31,8.4-49.6,8.4
			c-13.3,0-25.8-1.3-37.5-3.9c-11.7-2.6-22.3-5.9-31.7-10c-9.4-4-17.7-8.2-24.9-12.6C799.6,507.2,793.9,503.3,789.7,499.8z"/>
		<path class="st0" d="M1195.6,206.7h-110.1c-11.5,0-17.3-5.8-17.3-17.3v-10.5c0-11.5,5.8-17.3,17.3-17.3h271.6
			c11.2,0,16.8,5.8,16.8,17.3v10.5c0,11.5-5.6,17.3-16.8,17.3H1247v307.8c0,11.5-5.8,17.3-17.3,17.3h-17.3
			c-11.2,0-16.8-5.8-16.8-17.3V206.7z"/>
		<path class="st0" d="M1523.8,375l-112.2-193c-3.5-5.9-4.1-10.8-1.8-14.7c2.3-3.8,6.9-5.8,13.9-5.8h21c9.1,0,15.7,4,19.9,12.1
			l62.4,109.6c2.8,5.2,5.5,10.7,8.1,16.3c2.6,5.6,5,10.7,7.1,15.2c2.4,5.2,4.9,10.3,7.3,15.2h1c2.1-4.9,4.4-10,6.8-15.2
			c2.1-4.5,4.5-9.6,7.3-15.2c2.8-5.6,5.6-11,8.4-16.3l61.9-109.6c3.8-8,10.5-12.1,19.9-12.1h21c7,0,11.6,1.9,13.9,5.8
			c2.3,3.9,1.7,8.7-1.8,14.7l-112.2,193v139.5c0,11.5-5.8,17.3-17.3,17.3h-17.3c-11.5,0-17.3-5.8-17.3-17.3V375z"/>
		<path class="st0" d="M1769.7,178.9c0-11.5,5.8-17.3,17.3-17.3h16.8c11.5,0,17.3,5.8,17.3,17.3v307.8h148.9
			c11.5,0,17.3,5.8,17.3,17.3v10.5c0,11.5-5.8,17.3-17.3,17.3h-183c-11.5,0-17.3-5.8-17.3-17.3V178.9z"/>
		<path class="st0" d="M2061.3,178.9c0-11.5,5.8-17.3,17.3-17.3H2259c11.5,0,17.3,5.8,17.3,17.3v10.5c0,11.5-5.8,17.3-17.3,17.3
			h-146.3v115.9h115.9c11.5,0,17.3,5.8,17.3,17.3v10.5c0,11.5-5.8,17.3-17.3,17.3h-115.9v119h155.2c11.5,0,17.3,5.8,17.3,17.3v10.5
			c0,11.5-5.8,17.3-17.3,17.3h-189.3c-11.5,0-17.3-5.8-17.3-17.3V178.9z"/>
	</g>
</g>
</svg>
